<svg xmlns="http://www.w3.org/2000/svg" viewBox="0 0 62.45 96.3"><defs><style>.cls-1,.cls-2{fill:none;stroke:#050505;stroke-miterlimit:10;}.cls-1{stroke-width:3px;}.cls-2{stroke-width:2px;}</style></defs><g id="Layer_2" data-name="Layer 2"><g id="Layer_1-2" data-name="Layer 1"><g id="Layer_1-2-2" data-name="Layer 1-2"><g id="Outline"><path class="cls-1" d="M52.29,6.22H42a6,6,0,0,1,.06.61v4.69a5.33,5.33,0,0,1-5.33,5.33H25.37A5.33,5.33,0,0,1,20,11.52V6.83a6,6,0,0,1,.06-.61H10.16A8.66,8.66,0,0,0,1.5,14.88V86.14a8.66,8.66,0,0,0,8.66,8.66H52.29A8.66,8.66,0,0,0,61,86.14V14.88A8.66,8.66,0,0,0,52.29,6.22Z"/><path class="cls-1" d="M36.76,1.5H25.37A5.32,5.32,0,0,0,20.1,6.22H42A5.32,5.32,0,0,0,36.76,1.5Z"/><polygon class="cls-2" points="20.04 25.59 16.7 25.59 16.7 22.24 13.09 22.24 13.09 23.89 13.09 25.2 13.09 25.59 12.96 25.59 9.74 25.59 9.74 29.2 13.09 29.2 13.09 32.54 16.7 32.54 16.7 29.2 20.04 29.2 20.04 25.59"/><line class="cls-1" x1="33.07" y1="27.39" x2="54.92" y2="27.39"/><line class="cls-1" x1="8.75" y1="39.32" x2="54.95" y2="39.32"/><line class="cls-1" x1="8.75" y1="51.86" x2="54.95" y2="51.86"/><line class="cls-1" x1="8.75" y1="64.4" x2="54.95" y2="64.4"/><line class="cls-1" x1="8.75" y1="76.94" x2="54.95" y2="76.94"/></g></g></g></g></svg>