<svg xmlns="http://www.w3.org/2000/svg" viewBox="0 0 62.45 96.3"><defs><style>.cls-1,.cls-2{fill:none;stroke:#d3d3d3;stroke-miterlimit:10;}.cls-1{stroke-width:3px;}.cls-2{stroke-width:2px;}</style></defs><g id="Layer_2" data-name="Layer 2"><g id="Layer_1-2" data-name="Layer 1"><g id="Layer_2-2" data-name="Layer 2"><g id="Layer_1-2-2" data-name="Layer 1-2"><g id="Outline"><rect class="cls-1" x="1.5" y="6.22" width="59.45" height="88.58" rx="8.66"/><rect class="cls-1" x="20.04" y="1.5" width="22.05" height="15.35" rx="5.33"/><polygon class="cls-2" points="20.04 25.59 16.7 25.59 16.7 22.24 13.09 22.24 13.09 23.89 13.09 25.2 13.09 25.59 12.96 25.59 9.74 25.59 9.74 29.2 13.09 29.2 13.09 32.54 16.7 32.54 16.7 29.2 20.04 29.2 20.04 25.59"/><line class="cls-1" x1="33.07" y1="27.39" x2="54.92" y2="27.39"/><line class="cls-1" x1="8.75" y1="39.32" x2="54.95" y2="39.32"/><line class="cls-1" x1="8.75" y1="51.86" x2="54.95" y2="51.86"/><line class="cls-1" x1="8.75" y1="64.4" x2="54.95" y2="64.4"/><line class="cls-1" x1="8.75" y1="76.94" x2="54.95" y2="76.94"/></g></g></g></g></g></svg>