<svg id="Layer_1" data-name="Layer 1" xmlns="http://www.w3.org/2000/svg" viewBox="0 0 98.6 98.51"><defs><style>.cls-1{fill:none;}.cls-1,.cls-2{stroke:#231f20;stroke-linecap:round;stroke-linejoin:round;stroke-width:3px;}.cls-2{fill:#231f20;}</style></defs><title>edit</title><path class="cls-1" d="M48.83.3" transform="translate(-0.27 -0.91)"/><path class="cls-1" d="M62.78,75" transform="translate(-0.27 -0.91)"/><rect class="cls-1" x="38.04" y="-4.72" width="27.16" height="105.78" rx="3" ry="3" transform="translate(48.91 -23.3) rotate(45)"/><path class="cls-1" d="M1.78,95.72,3.41,79.38a2,2,0,0,1,3.4-1.22L21.53,92.88a2,2,0,0,1-1.21,3.41L4,97.91A2,2,0,0,1,1.78,95.72Z" transform="translate(-0.27 -0.91)"/><line class="cls-1" x1="81.1" y1="11.52" x2="16.01" y2="76.61"/><line class="cls-1" x1="87.13" y1="17.54" x2="22.04" y2="82.64"/><polygon class="cls-2" points="2.85 95.61 2.85 91.54 6.91 95.6 2.85 95.61"/></svg>