<svg xmlns="http://www.w3.org/2000/svg" viewBox="0 0 41.22 79.94"><defs><style>.cls-1{fill:#467c9d;}</style></defs><g id="Layer_2" data-name="Layer 2"><g id="מסך_פתיחה" data-name="מסך פתיחה"><path class="cls-1" d="M.63,5.13A114.62,114.62,0,0,0,0,17.93,8.56,8.56,0,0,0,.6,19.74c.62,1.53.87,2.61,1.4,3.09a2.61,2.61,0,0,0,.9.54,3.36,3.36,0,0,0,1.78.05,6.2,6.2,0,0,0,1.76-.89c.74-.55,1.76-1.38,2.39-1.78a17.8,17.8,0,0,1,2.69-1.35c.65-.23,2.69-.61,2.69-.61s1.72-.27,2.3-.27a12.86,12.86,0,0,1,2.4.35,8.37,8.37,0,0,1,2.38,1,8.18,8.18,0,0,1,1.8,2,3.43,3.43,0,0,1,.22,1.9,3.32,3.32,0,0,1-.33.68c-.13.42-.7.81-1.06,1.23a24.37,24.37,0,0,1-2.68,2.6c-1.47,1.22-5.54,5.26-5.54,5.26s-2.22,2.38-2.84,3.27a25.34,25.34,0,0,0-1.77,3.34,24.23,24.23,0,0,0-1.24,4.1A28.59,28.59,0,0,0,7.77,49a29.56,29.56,0,0,0,.78,4.67c.12.43.35,1.42.35,1.42a2.84,2.84,0,0,0,1.39,1.55,98,98,0,0,0,13.13.27A3.64,3.64,0,0,0,25,55.75a3.48,3.48,0,0,0,.62-1.23,4.74,4.74,0,0,0,0-1.13,16.44,16.44,0,0,0-1.11-2.78A13.41,13.41,0,0,1,24,48a14.23,14.23,0,0,1,0-2.61,8.28,8.28,0,0,1,1-2.15,18.48,18.48,0,0,1,1.74-2L29.28,39l3.09-2.63s1.93-2,2.58-2.7a35.49,35.49,0,0,0,2.7-3.29,29.48,29.48,0,0,0,2.22-4.24c.31-.83,1-3.47,1-3.47a34.45,34.45,0,0,0,.21-4.17c0-.67-.06-1.93-.14-2.57a19.43,19.43,0,0,0-.83-3.3,18.45,18.45,0,0,0-1.71-3.34A27.67,27.67,0,0,0,36.1,6.48,28.6,28.6,0,0,0,33,4c-1-.59-3.92-2-3.92-2S25.69.88,24.5.65,19,0,19,0,16.69,0,15.9.05A47.23,47.23,0,0,0,10,.89C8.28,1.29,3.28,3,3.28,3a16.38,16.38,0,0,0-1.75.93A3.19,3.19,0,0,0,.63,5.13Z"/><circle class="cls-1" cx="16.97" cy="69.19" r="10.75"/><path class="cls-1" d="M23.42,56.94l-2.48-8.76s-.32-3.62.08-4.73c.48-1.32,3.53-4.36,3.53-4.36l5-3.77A72.91,72.91,0,0,0,36,29.49a24.68,24.68,0,0,0,3.55-6.12,22.31,22.31,0,0,0,.76-6.89,22.1,22.1,0,0,0-2-6.21A23.11,23.11,0,0,0,34.8,6c-.75-.66-3.25-2.3-3.25-2.3l0-.53,2.25,1.36L37,7.49l2.31,3.34a40.66,40.66,0,0,1,1.82,5.42,45.87,45.87,0,0,1-.27,6.38l-2.14,5.81-3,4.33-3.34,3.56L29.28,39l-2.5,2.36-1.74,2a15.74,15.74,0,0,0-1,2.15A9.5,9.5,0,0,0,24,48a23,23,0,0,0,.72,3.06c.19.59.91,2.3.91,2.3l0,1.13-1,1.6Z"/><path class="cls-1" d="M.6,19.74c-.12-.32,4.59-1.93,5.08-2.29a64.28,64.28,0,0,1,6.9-2.39,21.87,21.87,0,0,1,6.1.1,19.07,19.07,0,0,1,5.5,2.53,5.29,5.29,0,0,1,1.63,3,4.16,4.16,0,0,1-.93,3,2.77,2.77,0,0,1-1.86.77c-.19,0,.24-.59.29-.8a3.18,3.18,0,0,0-.22-1.9,8.63,8.63,0,0,0-1.8-2,9.12,9.12,0,0,0-2.38-1,12.86,12.86,0,0,0-2.4-.35,19.61,19.61,0,0,0-2.93.39,18.66,18.66,0,0,0-2.06.49,18.28,18.28,0,0,0-2.69,1.35c-.63.4-2.39,1.78-2.39,1.78l-1.76.89a8,8,0,0,1-1.78-.05,2.45,2.45,0,0,1-1.46-1.43S.85,20.37.6,19.74Z"/></g></g></svg>