<svg xmlns="http://www.w3.org/2000/svg" viewBox="0 0 99.89 75.45"><defs><style>.cls-1,.cls-2{fill:none;stroke:#020202;stroke-miterlimit:10;stroke-width:3px;}.cls-2{stroke-linecap:round;}</style></defs><g id="Layer_2" data-name="Layer 2"><g id="Layer_1-2" data-name="Layer 1"><polyline class="cls-1" points="15.14 42.01 17.8 47.44 21.42 42.01"/><line class="cls-2" x1="25.04" y1="52.42" x2="25.04" y2="60.12"/><polyline class="cls-1" points="78.53 42.01 81.19 47.44 84.81 42.01"/><line class="cls-2" x1="73.95" y1="52.42" x2="73.95" y2="60.12"/><line class="cls-2" x1="88.44" y1="52.42" x2="88.44" y2="60.12"/><ellipse class="cls-1" cx="16.89" cy="24.79" rx="12.29" ry="15.52"/><ellipse class="cls-1" cx="49.18" cy="23.49" rx="17.41" ry="21.99"/><ellipse class="cls-1" cx="81.58" cy="26.08" rx="12.29" ry="15.52"/><path class="cls-1" d="M5.07,20.55s21.52,5.53,25.4,2.94,18.12-10.35,22-10.35S66.89,22.5,66.89,22.5,91.28,23.85,91.28,17"/><path class="cls-1" d="M86.93,42H76.36a11.43,11.43,0,0,0-10,5.79,11.41,11.41,0,0,0-4.71-1H36.76a11.28,11.28,0,0,0-3.55.57A11.43,11.43,0,0,0,23.53,42H13A11.46,11.46,0,0,0,1.5,53.48V56a5,5,0,0,0,5,5H25.3V69a5,5,0,0,0,5,5H68.18a5,5,0,0,0,5-5V61H93.41a5,5,0,0,0,5-5V53.48A11.46,11.46,0,0,0,86.93,42Z"/><polyline class="cls-1" points="44.78 46.78 48.59 54.54 53.76 46.78"/><line class="cls-2" x1="38.24" y1="61.66" x2="38.24" y2="72.66"/><line class="cls-2" x1="58.94" y1="61.66" x2="58.94" y2="72.66"/><line class="cls-2" x1="9.26" y1="52.42" x2="9.26" y2="60.12"/><path class="cls-2" d="M25.3,61s.59-6.51,1.59-8.51c.85-1.69,6-5,6-5"/><path class="cls-2" d="M66.7,48.07S69.85,50.5,70.58,52a60.78,60.78,0,0,1,2.31,7.54"/></g></g></svg>