<svg id="Layer_1" data-name="Layer 1" xmlns="http://www.w3.org/2000/svg" viewBox="0 0 74.57 99.78"><defs><style>.cls-1{fill:none;}.cls-1,.cls-2{stroke:#231f20;stroke-linecap:round;stroke-linejoin:round;stroke-width:3px;}.cls-2{fill:#231f20;}</style></defs><title>hourglass</title><path class="cls-1" d="M48.83.3" transform="translate(-9.99 -0.13)"/><path class="cls-1" d="M62.78,75" transform="translate(-9.99 -0.13)"/><line class="cls-1" x1="1.5" y1="1.5" x2="73.07" y2="1.5"/><line class="cls-1" x1="1.5" y1="98.24" x2="73.07" y2="98.24"/><path class="cls-1" d="M75.83,1.67c0,18.15-13.48,47.65-27.77,47.65S20.28,19.82,20.28,1.67" transform="translate(-9.99 -0.13)"/><path class="cls-1" d="M75.83,98.41c0-18.69-13.48-49.09-27.77-49.09S20.28,79.72,20.28,98.41" transform="translate(-9.99 -0.13)"/><path class="cls-2" d="M75.83,96.59s-17.3-19.15-27.4-19.15C37.51,77.44,21,96.59,21,96.59Z" transform="translate(-9.99 -0.13)"/><path class="cls-2" d="M67.31,29.18S54.22,49.32,48.44,49.32,29.57,29.18,29.57,29.18Z" transform="translate(-9.99 -0.13)"/><rect class="cls-2" x="37.13" y="48.4" width="2.33" height="31.72"/></svg>