<svg xmlns="http://www.w3.org/2000/svg" viewBox="0 0 87 89.08"><defs><style>.cls-1{fill:#a8d9db;}.cls-2{fill:#a6b3db;}.cls-3{fill:#f5baa0;}.cls-4{fill:#c38d6f;}.cls-5{fill:#0f1d41;}.cls-6{fill:#d12641;}.cls-7{fill:#dba489;}.cls-8{fill:#502610;}.cls-9{fill:#1c2851;}.cls-10{fill:#9da0ae;}.cls-11{fill:#e1e4ec;}.cls-12{fill:#b0b4c3;}.cls-13{fill:#545559;}</style></defs><g id="Layer_2" data-name="Layer 2"><g id="מסך_פתיחה" data-name="מסך פתיחה"><path class="cls-1" d="M48,30.53c-.11-4.43-2.23-6.46-5.18-6.46h0c-2.95,0-5.49,2.3-5.38,6.73L37.82,43H48.34Z"/><polygon class="cls-2" points="44.24 27.87 41.34 27.84 39.83 23.45 45.79 23.3 44.24 27.87"/><ellipse class="cls-3" cx="36.26" cy="14.57" rx="1.41" ry="1.21" transform="translate(-0.36 0.92) rotate(-1.45)"/><ellipse class="cls-3" cx="48.78" cy="14.25" rx="1.41" ry="1.21" transform="translate(-0.34 1.24) rotate(-1.45)"/><path class="cls-4" d="M43.38,42h0Z"/><rect class="cls-5" x="40.03" y="42.21" width="2.46" height="8.42" transform="translate(-1.16 1.06) rotate(-1.45)"/><path class="cls-6" d="M42.49,50.52a.5.5,0,0,0,0-.15,2.08,2.08,0,0,0-2.36-1.7c-1.29,0-2.31.82-2.28,1.81a.47.47,0,0,0,0,.16Z"/><rect class="cls-5" x="44.28" y="42.1" width="2.46" height="8.42" transform="translate(92.17 91.46) rotate(178.55)"/><path class="cls-6" d="M44.48,50.47a.5.5,0,0,1,0-.15c0-1,1-1.79,2.27-1.82s2.34.71,2.37,1.69a.54.54,0,0,1,0,.16Z"/><rect class="cls-1" x="33.66" y="21.69" width="1.94" height="8.63" rx="0.25" transform="translate(74.93 10.15) rotate(121.62)"/><path class="cls-3" d="M31.18,11h0a.84.84,0,0,1,1,.82l.08,1.89a1.06,1.06,0,0,1-.9,1.07h0a.84.84,0,0,1-1-.82L30.29,12A1.05,1.05,0,0,1,31.18,11Z"/><path class="cls-7" d="M32.39,12.62h0a.32.32,0,0,1,.28.38l-.18.81a.39.39,0,0,1-.43.29h0a.32.32,0,0,1-.27-.38L32,12.9A.38.38,0,0,1,32.39,12.62Z"/><path class="cls-1" d="M31.16,14.66l.34,0a.68.68,0,0,1,.79.67l.34,8.42a.87.87,0,0,1-.74.87l-.34.05a.68.68,0,0,1-.79-.67l-.34-8.42A.89.89,0,0,1,31.16,14.66Z"/><path class="cls-3" d="M31.29,13.79h0a.32.32,0,0,1,.36.3l0,.68a.38.38,0,0,1-.32.39h0a.3.3,0,0,1-.35-.29l0-.69A.39.39,0,0,1,31.29,13.79Z"/><rect class="cls-1" x="49.72" y="21.8" width="1.94" height="8.63" rx="0.25" transform="translate(46.35 -30.74) rotate(58.38)"/><path class="cls-3" d="M54.14,11.07h0a.84.84,0,0,0-1,.82l-.08,1.89a1.07,1.07,0,0,0,.9,1.07h0A.84.84,0,0,0,55,14L55,12.14A1.07,1.07,0,0,0,54.14,11.07Z"/><path class="cls-7" d="M52.93,12.73h0a.32.32,0,0,0-.28.38l.18.82a.4.4,0,0,0,.43.28h0a.32.32,0,0,0,.27-.38L53.35,13A.38.38,0,0,0,52.93,12.73Z"/><path class="cls-1" d="M54.16,14.77l-.34,0a.68.68,0,0,0-.79.67l-.33,8.42a.86.86,0,0,0,.73.87l.34,0a.7.7,0,0,0,.8-.67l.33-8.42A.88.88,0,0,0,54.16,14.77Z"/><path class="cls-3" d="M54,13.91h0a.29.29,0,0,0-.35.29l0,.69a.38.38,0,0,0,.32.38h0a.31.31,0,0,0,.36-.29l0-.69A.38.38,0,0,0,54,13.91Z"/><path class="cls-3" d="M47.58,23.37l-8.11.21c-1.84.06-2.9-.95-2.94-2.22l-.3-11.95a2.31,2.31,0,0,1,2.25-2.36l8.1-.21a2.31,2.31,0,0,1,2.36,2.25l.3,12A2.26,2.26,0,0,1,47.58,23.37Z"/><path class="cls-8" d="M46.46,5.56c-.53-.25-.33-1.33-1.06-2a4.36,4.36,0,0,0-.55-.49,2.07,2.07,0,0,0-.91-.36,2.65,2.65,0,0,0-.9,0,6.5,6.5,0,0,0-.66.17c-.36.1-.89.26-1.4.38-.35.08-.6.12-1.1.19a1.66,1.66,0,0,1-.86,0,1.47,1.47,0,0,1-.49-.28A2.8,2.8,0,0,1,38,1.52c0-.79.47-1.19.36-1.42s-1,0-1.41.84A2.94,2.94,0,0,0,36.71,2a3,3,0,0,1-.09.84c0,.09-.14.4-.25.39s-.26-1.66-.45-1.68-.55,2.3-.55,2.3h0a5.09,5.09,0,0,0-.13.61,7.35,7.35,0,0,0-.05.83,11.6,11.6,0,0,0,1,3.58c-.06.82-.11,1.67-.15,2.53,0,.48,0,.65,0,.65a3.84,3.84,0,0,0,.28,1.61c.47-2.54.93-3.61,1-4.06.07-.6.56.56,1.35.94A2.76,2.76,0,0,0,41,10.34a11,11,0,0,0,2.17-1.5C44.33,8,44.83,7.45,45.27,7.5c.88.09,1.51,1.34,1.85,2,1,2,1,3.83,1.47,3.9s.59-2.13.75-3.54A7.25,7.25,0,0,0,49,6.36c-.19-.49-.31-1.37-.9-1.51S47,5.79,46.46,5.56Z"/><rect class="cls-8" x="38.21" y="11.66" width="3.88" height="0.79" rx="0.12" transform="translate(-1.45 17.18) rotate(-23.73)"/><rect class="cls-8" x="43.76" y="11.52" width="3.88" height="0.79" rx="0.12" transform="matrix(-0.93, -0.36, 0.36, -0.93, 84.17, 39.3)"/><polygon class="cls-9" points="42.96 28.66 41.65 26.41 42.78 24.26 44.13 26.26 42.96 28.66"/><polygon class="cls-9" points="42.86 25.89 42.14 24.66 41.4 23.5 42.79 23.52 44.24 23.48 43.54 24.71 42.86 25.89"/><polygon class="cls-10" points="42.01 26.84 40.55 24.55 40.55 24.59 40.48 24.48 39.83 23.45 39.28 24.54 38.71 25.62 39.93 25.54 40.45 25.52 40.37 26.32 40.14 28.05 41.81 28.56 42.55 28.8 42.9 28.2 42.01 26.84"/><polygon class="cls-10" points="46.97 25.41 46.34 24.36 45.74 23.3 45.14 24.37 45.07 24.47 45.07 24.43 43.73 26.8 42.9 28.2 43.28 28.79 44.01 28.5 45.66 27.91 45.34 26.19 45.22 25.41 45.74 25.4 46.97 25.41"/><line class="cls-11" x1="42.74" y1="28.79" x2="43.07" y2="41.95"/><polygon class="cls-10" points="42.55 28.8 42.92 28.93 43.28 28.79 42.9 28.2 42.55 28.8"/><circle class="cls-12" cx="44.48" cy="35.46" r="0.23"/><circle class="cls-12" cx="44.5" cy="36.46" r="0.23"/><circle class="cls-12" cx="44.53" cy="37.46" r="0.23"/><path class="cls-1" d="M18.47,39.44c-.06-4.43-2.16-6.52-5.11-6.52h0c-3,0-5.51,2.23-5.45,6.66l.18,12.17,10.52.13Z"/><polygon class="cls-2" points="14.72 36.73 11.82 36.67 10.36 32.27 16.32 32.18 14.72 36.73"/><ellipse class="cls-3" cx="6.9" cy="23.34" rx="1.41" ry="1.21" transform="translate(-0.31 0.09) rotate(-0.77)"/><ellipse class="cls-3" cx="19.41" cy="23.17" rx="1.41" ry="1.21" transform="translate(-0.31 0.26) rotate(-0.77)"/><path class="cls-4" d="M13.69,50.81h0Z"/><rect class="cls-5" x="10.29" y="51.04" width="2.46" height="8.42" transform="translate(-0.74 0.16) rotate(-0.77)"/><path class="cls-6" d="M12.7,59.36a.46.46,0,0,0,0-.15c0-1-1.06-1.74-2.34-1.73s-2.31.8-2.3,1.79a.47.47,0,0,0,0,.16Z"/><rect class="cls-5" x="14.54" y="50.98" width="2.46" height="8.42" transform="translate(32.27 110.17) rotate(179.23)"/><path class="cls-6" d="M14.69,59.34s0-.09,0-.15c0-1,1-1.78,2.3-1.8s2.33.74,2.34,1.73a.5.5,0,0,1,0,.15Z"/><path class="cls-3" d="M4.63,52.19h0a.85.85,0,0,0,.91-.88l-.06-1.89a1.07,1.07,0,0,0-1-1h0a.85.85,0,0,0-.91.89l.06,1.89A1,1,0,0,0,4.63,52.19Z"/><rect class="cls-1" x="5.74" y="32.51" width="1.94" height="8.63" rx="0.25" transform="translate(-16.69 66.05) rotate(-130.99)"/><path class="cls-1" d="M4.34,48.57l.34,0a.69.69,0,0,0,.75-.73l-.26-8.42a.88.88,0,0,0-.8-.82L4,38.6a.68.68,0,0,0-.74.72l.26,8.42A.87.87,0,0,0,4.34,48.57Z"/><path class="cls-3" d="M18.11,32.28,10,32.39c-1.84,0-2.89-1-2.91-2.25l-.16-12A2.31,2.31,0,0,1,9.2,15.85l8.11-.11A2.31,2.31,0,0,1,19.64,18l.16,12A2.28,2.28,0,0,1,18.11,32.28Z"/><path class="cls-8" d="M17.2,14.45c-.53-.25-.32-1.33-1-2a6.64,6.64,0,0,0-.55-.51,2.21,2.21,0,0,0-.91-.37,2.42,2.42,0,0,0-.9,0,4.36,4.36,0,0,0-.66.16c-.36.09-.89.24-1.41.36a9.59,9.59,0,0,1-1.1.17,1.52,1.52,0,0,1-.85,0,1.73,1.73,0,0,1-.5-.29,2.87,2.87,0,0,1-.51-1.61c0-.79.49-1.19.39-1.42s-1,0-1.43.83a3,3,0,0,0-.25,1.08,2.76,2.76,0,0,1-.1.84c0,.09-.14.4-.25.38s-.25-1.66-.44-1.68-.57,2.3-.57,2.3h0a4.46,4.46,0,0,0-.13.6,5.29,5.29,0,0,0-.07.83,11.77,11.77,0,0,0,1,3.59c-.07.82-.13,1.67-.18,2.53l0,.65A3.81,3.81,0,0,0,7,22.46c.5-2.53,1-3.59,1-4,.08-.6.55.56,1.34.95a2.78,2.78,0,0,0,2.42-.2,11,11,0,0,0,2.18-1.48c1.13-.8,1.64-1.36,2.08-1.31.87.1,1.49,1.36,1.83,2.05,1,2,1,3.83,1.41,3.91s.62-2.12.8-3.53a7.41,7.41,0,0,0-.33-3.53c-.18-.49-.29-1.37-.88-1.52S17.69,14.69,17.2,14.45Z"/><rect class="cls-8" x="8.87" y="20.48" width="3.88" height="0.79" rx="0.12" transform="translate(-7.31 5.9) rotate(-23.06)"/><rect class="cls-8" x="14.42" y="20.4" width="3.88" height="0.79" rx="0.12" transform="translate(23.96 46.14) rotate(-158.48)"/><polygon class="cls-9" points="13.43 37.51 12.14 35.24 13.3 33.11 14.63 35.12 13.43 37.51"/><polygon class="cls-9" points="13.36 34.74 12.66 33.5 11.93 32.33 13.31 32.37 14.77 32.35 14.06 33.57 13.36 34.74"/><circle class="cls-12" cx="14.86" cy="44.33" r="0.23"/><circle class="cls-12" cx="14.88" cy="45.33" r="0.23"/><circle class="cls-12" cx="14.89" cy="46.33" r="0.23"/><rect class="cls-13" y="59.19" width="29" height="29.9"/><rect class="cls-13" x="29" y="49.98" width="29" height="39.1"/><rect class="cls-13" x="58" y="71.01" width="29" height="18.07"/><path class="cls-7" d="M5.75,50.22h0a.31.31,0,0,1-.45-.11l-.38-.75a.39.39,0,0,1,.15-.49h0a.31.31,0,0,1,.45.12l.38.75A.39.39,0,0,1,5.75,50.22Z"/><path class="cls-3" d="M21.3,52.53h0a.85.85,0,0,1-.89-.91l.1-1.88a1.06,1.06,0,0,1,1-1h0a.84.84,0,0,1,.89.9l-.11,1.89A1,1,0,0,1,21.3,52.53Z"/><rect class="cls-1" x="18.61" y="32.81" width="1.94" height="8.63" rx="0.25" transform="translate(-21.05 26.59) rotate(-47.66)"/><path class="cls-1" d="M21.67,48.91l-.34,0a.7.7,0,0,1-.73-.74l.46-8.42a.87.87,0,0,1,.81-.8l.34,0a.69.69,0,0,1,.73.75l-.46,8.41A.85.85,0,0,1,21.67,48.91Z"/><path class="cls-7" d="M20.23,50.3h0c.16.1.36.06.45.13l.39-.74c.09-.4,0-.62-.13-.73h0a.32.32,0,0,0-.46.11l-.39.74A.38.38,0,0,0,20.23,50.3Z"/><polygon class="cls-10" points="12.5 35.68 11.07 33.37 11.06 33.41 11 33.3 10.36 32.27 9.8 33.35 9.21 34.42 10.44 34.36 10.96 34.35 10.87 35.14 10.62 36.87 12.28 37.39 13.02 37.65 13.38 37.05 12.5 35.68"/><polygon class="cls-10" points="17.47 34.31 16.86 33.26 16.27 32.19 15.66 33.24 15.59 33.35 15.59 33.31 14.21 35.66 13.38 37.05 13.75 37.64 14.48 37.36 16.13 36.79 15.84 35.07 15.72 34.28 16.25 34.28 17.47 34.31"/><line class="cls-11" x1="13.2" y1="37.64" x2="13.38" y2="50.8"/><polygon class="cls-10" points="13.02 37.65 13.39 37.78 13.75 37.64 13.38 37.05 13.02 37.65"/><path class="cls-1" d="M77.45,51.24c-.06-4.43-2.15-6.52-5.1-6.52h0c-2.95,0-5.52,2.23-5.46,6.66l.18,12.17,10.53.13Z"/><polygon class="cls-2" points="73.7 48.53 70.8 48.47 69.34 44.06 75.31 43.98 73.7 48.53"/><ellipse class="cls-3" cx="65.88" cy="35.14" rx="1.41" ry="1.21" transform="translate(-0.47 0.89) rotate(-0.77)"/><ellipse class="cls-3" cx="78.4" cy="34.97" rx="1.41" ry="1.21" transform="matrix(1, -0.01, 0.01, 1, -0.46, 1.06)"/><path class="cls-4" d="M72.68,62.61h0Z"/><rect class="cls-5" x="69.27" y="62.84" width="2.46" height="8.42" transform="translate(-0.9 0.96) rotate(-0.77)"/><path class="cls-6" d="M71.69,71.16a.46.46,0,0,0,0-.15c0-1-1.06-1.75-2.35-1.73s-2.31.8-2.29,1.78a.54.54,0,0,0,0,.16Z"/><rect class="cls-5" x="73.52" y="62.78" width="2.46" height="8.42" transform="translate(150.4 132.97) rotate(179.23)"/><path class="cls-6" d="M73.68,71.13a.71.71,0,0,1,0-.14c0-1,1-1.78,2.3-1.8s2.34.74,2.35,1.72a.54.54,0,0,1,0,.16Z"/><path class="cls-3" d="M63.61,64h0a.85.85,0,0,0,.91-.89l0-1.89a1.07,1.07,0,0,0-1-1h0a.85.85,0,0,0-.92.88L62.64,63A1.07,1.07,0,0,0,63.61,64Z"/><rect class="cls-1" x="64.72" y="44.31" width="1.94" height="8.63" rx="0.25" transform="translate(72.09 130.11) rotate(-130.99)"/><path class="cls-1" d="M63.33,60.36l.34,0a.69.69,0,0,0,.74-.73l-.26-8.42a.85.85,0,0,0-.79-.82l-.34,0a.69.69,0,0,0-.75.72l.26,8.42A.86.86,0,0,0,63.33,60.36Z"/><path class="cls-3" d="M77.09,44.08,69,44.19c-1.84,0-2.89-1-2.9-2.26L65.91,30a2.31,2.31,0,0,1,2.28-2.33l8.1-.11a2.31,2.31,0,0,1,2.34,2.27l.16,12A2.3,2.3,0,0,1,77.09,44.08Z"/><path class="cls-8" d="M76.18,26.25c-.52-.25-.31-1.33-1-2a6.52,6.52,0,0,0-.54-.5,2.26,2.26,0,0,0-.91-.37,2.69,2.69,0,0,0-.9,0,4.74,4.74,0,0,0-.67.16c-.35.1-.89.25-1.4.36a9.34,9.34,0,0,1-1.1.18,1.66,1.66,0,0,1-.86,0,1.59,1.59,0,0,1-.49-.3,2.76,2.76,0,0,1-.51-1.6c0-.79.48-1.19.38-1.42s-1,0-1.42.82a3,3,0,0,0-.25,1.08,2.84,2.84,0,0,1-.11.85c0,.09-.14.39-.25.38s-.24-1.66-.43-1.69-.57,2.3-.57,2.3h0a4.77,4.77,0,0,0-.14.61,6.09,6.09,0,0,0-.06.82,11.51,11.51,0,0,0,1,3.6c-.07.82-.13,1.66-.18,2.53,0,.48,0,.65,0,.65a3.78,3.78,0,0,0,.26,1.61c.5-2.53,1-3.6,1-4,.08-.6.55.56,1.33.94A2.74,2.74,0,0,0,70.71,31a11,11,0,0,0,2.19-1.48c1.13-.8,1.64-1.37,2.07-1.31.88.1,1.49,1.35,1.83,2,1,2,1,3.84,1.42,3.91s.62-2.11.8-3.52a7.4,7.4,0,0,0-.33-3.53c-.18-.49-.29-1.37-.89-1.52S76.68,26.48,76.18,26.25Z"/><rect class="cls-8" x="67.86" y="32.27" width="3.88" height="0.79" rx="0.12" transform="translate(-7.22 29.95) rotate(-23.06)"/><rect class="cls-8" x="73.41" y="32.2" width="3.88" height="0.79" rx="0.12" transform="translate(133.5 90.55) rotate(-158.48)"/><polygon class="cls-9" points="72.42 49.31 71.13 47.04 72.29 44.91 73.61 46.92 72.42 49.31"/><polygon class="cls-9" points="72.34 46.54 71.64 45.3 70.92 44.13 72.3 44.17 73.75 44.15 73.04 45.37 72.34 46.54"/><circle class="cls-12" cx="73.85" cy="56.12" r="0.23"/><circle class="cls-12" cx="73.86" cy="57.12" r="0.23"/><circle class="cls-12" cx="73.88" cy="58.13" r="0.23"/><path class="cls-7" d="M64.74,62h0a.32.32,0,0,1-.46-.12l-.37-.75a.37.37,0,0,1,.15-.48h0a.32.32,0,0,1,.45.11l.37.75A.38.38,0,0,1,64.74,62Z"/><path class="cls-3" d="M80.29,64.33h0a.85.85,0,0,1-.89-.91l.1-1.89a1.06,1.06,0,0,1,1-1h0a.85.85,0,0,1,.89.91l-.1,1.89A1.06,1.06,0,0,1,80.29,64.33Z"/><rect class="cls-1" x="77.6" y="44.6" width="1.94" height="8.63" rx="0.25" transform="translate(-10.51 74.04) rotate(-47.66)"/><path class="cls-1" d="M80.66,60.71h-.34a.68.68,0,0,1-.73-.74l.46-8.41a.85.85,0,0,1,.81-.8l.34,0a.7.7,0,0,1,.73.74l-.46,8.42A.87.87,0,0,1,80.66,60.71Z"/><path class="cls-7" d="M79.21,62.09h0c.17.11.37.06.45.14l.4-.74c.09-.4,0-.62-.14-.73h0a.3.3,0,0,0-.45.11l-.39.73A.38.38,0,0,0,79.21,62.09Z"/><polygon class="cls-10" points="71.49 47.48 70.06 45.17 70.05 45.21 69.98 45.1 69.34 44.06 68.78 45.15 68.2 46.22 69.42 46.16 69.94 46.15 69.85 46.94 69.6 48.67 71.27 49.19 72.01 49.45 72.36 48.85 71.49 47.48"/><polygon class="cls-10" points="76.46 46.11 75.84 45.05 75.25 43.98 74.64 45.04 74.58 45.15 74.57 45.11 73.2 47.46 72.36 48.85 72.74 49.44 73.47 49.16 75.12 48.59 74.82 46.87 74.71 46.08 75.23 46.08 76.46 46.11"/><line class="cls-11" x1="72.19" y1="49.43" x2="72.37" y2="62.6"/><polygon class="cls-10" points="72.01 49.45 72.37 49.57 72.74 49.44 72.36 48.85 72.01 49.45"/></g></g></svg>