<svg xmlns="http://www.w3.org/2000/svg" viewBox="0 0 86.78 102.66"><defs><style>.cls-1{fill:#467c9d;}.cls-2,.cls-7{font-size:13.89px;}.cls-2,.cls-5{fill:#231f20;}.cls-2,.cls-5,.cls-7{font-family:MyriadHebrew-Regular, Myriad Hebrew;}.cls-3{fill:#9cc1e6;}.cls-4,.cls-7{fill:#a8d9db;}.cls-5{font-size:13.89px;}.cls-6{fill:#1c3557;}.cls-8{fill:#f1f7ed;}</style></defs><g id="Layer_2" data-name="Layer 2"><g id="מסך_פתיחה" data-name="מסך פתיחה"><rect class="cls-1" x="10.27" y="5.1" width="68.73" height="92.47" rx="5.26" transform="translate(11.47 -8.06) rotate(11.83)"/><text class="cls-2" transform="translate(30.24 20.45) rotate(11.83)">A</text><text class="cls-2" transform="translate(55.28 89.03) rotate(11.83)">A</text><path class="cls-3" d="M61.71,63.86c.36-.16.62-.29.79-.38.45-.23.82-.44,1-.52l.09-.05c-.21.14.1,0,.09,0l.26-.12a5.07,5.07,0,0,0,1-.67,2.46,2.46,0,0,0,.26-.24,8.39,8.39,0,0,0,.69-.88,6,6,0,0,0,.51-1,10.84,10.84,0,0,0,.34-1.21c.2-.74.32-1.2.46-1.85l0-.07a10.39,10.39,0,0,0,.13-1.57c0-.44,0-1.08.1-1.87,0,0,0-.18,0-.39l.78-.12h0a15.18,15.18,0,0,1,0,1.91,31.58,31.58,0,0,1-.44,3.41c-.17.71-.35,1.39-.35,1.39-.33,1.18-.44,1.41-.37,1.48s1-.56,1.42-1.57A8,8,0,0,0,69,57.66c0-.17.09-.59.12-1,0-.19,0-.36,0-.69,0-.11,0-.2,0-.24v-.38c0-.55-.16-2.41-.1-2.45v0l.77-.16c0,.23.08.34.1.57a20.88,20.88,0,0,1,0,2.17,17.4,17.4,0,0,1-.22,3.16,7.63,7.63,0,0,1-.55,2,5.12,5.12,0,0,1-.63,1,4.66,4.66,0,0,1-.73.78,4.19,4.19,0,0,1-.59.43,28,28,0,0,1-6.07,3.45c-.56.15-1.51.58-2.32.87-1.45.52-2.65.9-3.49,1.16-.36.11-.93.29-1.62.48s-1.24.35-1.32.37a26.17,26.17,0,0,1-7.45.64c-.36,0-.9,0-1.61-.09a35.79,35.79,0,0,1-3.76-.6c-2.92-.57-3.68-1-4.15-1.42-1.58-1.22-2.71-2.56-2.6-4.73v-.1c0-.11,0-.21,0-.66,0-.62,0-.62,0-.87a10.55,10.55,0,0,0-.12-1.1c-.07-.6,0-.58-.11-1.26s-.09-.59-.13-1-.14-1.5-.22-2.11-.41-4.48-.34-5.33c0-.37.09-.75.12-1.12a1.2,1.2,0,0,1,.18-.63c.08-.09.14-.08.22-.17a.83.83,0,0,0,.11-.4h0L33,48c0,.18-.06.3,0,.39s.22.06.31.21,0,.73-.15,1.21A9.13,9.13,0,0,0,33,51.63a22,22,0,0,0,.11,2.2c.07,1,.1.89.29,2.72.07.76.18,1.52.24,2.29.1,1.09.09,1.35.22,1.4s.61-.85,2-3.11c.31-.5.63-1,1.09-1.81.17-.3.4-.71.68-1.26A15.35,15.35,0,0,0,38.58,52,8.51,8.51,0,0,0,39,50.62l.06-.31a.59.59,0,0,1,.07-.27.48.48,0,0,1,.2-.23l.1,0a.5.5,0,0,0,.16-.07l.51,0c.08.16.26.15.29.35a1.26,1.26,0,0,1-.07.38,1.21,1.21,0,0,1-.07.2,1.61,1.61,0,0,0-.09.24,32.14,32.14,0,0,1-2.29,4.87c-.45.76-.8,1.38-1,1.82s-.59,1-.87,1.56-.83,1.39-.86,1.44-.29.52-.34.61a4.43,4.43,0,0,0-.23.42,5.2,5.2,0,0,0-.39,1.3,5,5,0,0,0,.54,1.55A3,3,0,0,0,35,65a9.2,9.2,0,0,0,3.53,1.88,27.33,27.33,0,0,0,3.71.69,32.08,32.08,0,0,0,3.6.2,35.88,35.88,0,0,0,3.86-.24l.62-.09.8-.12.65-.13c.16,0,1.2-.38,4.73-1.44h0a31.87,31.87,0,0,0,3.64-1.19C60.8,64.27,61.31,64,61.71,63.86Z"/><path class="cls-3" d="M71.17,48.72a4.59,4.59,0,0,1-.3,1.49,3.08,3.08,0,0,1-.66,1.11c-.22.22-.37.27-.45.5a2.07,2.07,0,0,0,0,.8s0,0,0,0l-.77.16c0-.24,0-.32,0-.32,0-.16,0-.53-.09-.61s-.08,0-.3.06a2.1,2.1,0,0,0-.36.1l0,0s-.08.11-.08.32a1.37,1.37,0,0,0,.06.38h0a.87.87,0,0,1,0,.1l-.78.12a2.84,2.84,0,0,0,0-.7c-.12-.31-.37-.26-.68-.48a2.48,2.48,0,0,1-.72-1.39,3.81,3.81,0,0,1-.15-1.64,4.08,4.08,0,0,1,.47-1.44,3.39,3.39,0,0,1,1.68-1.6,2,2,0,0,1,1.59.1A2.37,2.37,0,0,1,70.78,47,3.81,3.81,0,0,1,71.17,48.72Zm-3.78,1.42c.89.78,2.2.13,2.6-1.3a2.32,2.32,0,0,0-.52-2.32c-.89-.77-2.19-.12-2.59,1.29A2.32,2.32,0,0,0,67.39,50.14Z"/><path class="cls-3" d="M70,48.84c-.4,1.43-1.71,2.08-2.6,1.3a2.32,2.32,0,0,1-.51-2.33c.4-1.41,1.7-2.06,2.59-1.29A2.32,2.32,0,0,1,70,48.84Z"/><path class="cls-3" d="M45.76,36.22a7,7,0,0,1-.59,1.67c-.19.4-.32.64-.93,1.71-1,1.69-1,1.69-1.12,2a21.92,21.92,0,0,0-.88,2c-.27.69-.23.67-.65,1.8-.3.83-.66,1.75-.66,1.75-.2.51-.34,1.06-.57,1.55s-.36.78-.26,1l-.51,0c.1-.09.1-.3.11-.45l.2-.76a16.64,16.64,0,0,1,.77-2.15s.19-.43,1-2.32A30.5,30.5,0,0,1,43,40.88c.47-.89.73-1.34.73-1.34a10.69,10.69,0,0,0,.53-.94c.21-.43.22-.52.48-1.06s.25-.46.38-.76a3.86,3.86,0,0,0,.28-.87,4.65,4.65,0,0,0,0-.9,5.81,5.81,0,0,0,0-.68,2.53,2.53,0,0,0-.1-.52,1.62,1.62,0,0,0-.3-.49,2.86,2.86,0,0,0-.46-.51,2,2,0,0,0-.58-.42,2.19,2.19,0,0,0-1.08-.11c-.33,0-.25,0-.6.06s-.64,0-.76.16,0,.18-.09.3-.26.15-.6.25-.4.23-.58.21a.65.65,0,0,1-.48-.44,1.2,1.2,0,0,1,0-.68c0-.07.11-.42.34-.53.06,0,.1,0,.27,0a3.7,3.7,0,0,0,.44,0c.43,0,.52-.07.7-.06s.29.15.55.23.57-.07,1-.09a2.39,2.39,0,0,1,1.35.3,2.83,2.83,0,0,1,1,1.18,4.53,4.53,0,0,1,.45,1.45A5.7,5.7,0,0,1,45.76,36.22Z"/><path class="cls-3" d="M40.26,30.54a2.41,2.41,0,0,1,0,.32,1,1,0,0,1-.38.52.62.62,0,0,1-.54.1l-.1-.06a2.83,2.83,0,0,1-.35-.3L38.67,31a2,2,0,0,1-.18-.17l-.06-.08a.17.17,0,0,0,0-.05.09.09,0,0,1,0-.06.28.28,0,0,1,0-.13c0-.14.08-.18.09-.25s0-.12-.19-.24a3,3,0,0,0-.41-.25l0,0-.08,0-.13-.07-.11-.06-.08,0-.06,0-.07,0-.2-.08a1.4,1.4,0,0,0-.36-.08l-.29,0a6.52,6.52,0,0,0-.67,0,3.2,3.2,0,0,0-.6.09,1.59,1.59,0,0,0-.52.16,1.7,1.7,0,0,0-.55.71,5.15,5.15,0,0,0-.38,1.11,9.64,9.64,0,0,0-.22,1c0,.19-.07.49-.09.84,0,.15,0,.31.07,1.15,0,.53,0,.45.09,1.09,0,0,0,.23.05.64,0,.19,0,.28,0,.37s0,.14,0,.23,0,.29,0,.32,0,.15,0,.27a1.55,1.55,0,0,1,0,.23,1.85,1.85,0,0,0,0,.23V38c0,.38,0,.45,0,.92,0,.12,0,.25,0,.42,0,.79-.06.79-.1,1.92-.05,1.31,0,1.36-.05,2.28,0,.59-.08.52-.18,1.55-.06.59-.09.92-.17,1.56l-.1.73c-.06.28-.12.5-.16.66l-.43.06h0a.92.92,0,0,0,0-.15,19.07,19.07,0,0,0,.25-2c.05-.44,0-.3.13-1,.11-.91.16-1.36.18-1.79,0-.73,0-.79,0-1.6,0-.17,0-.29,0-.37,0-.33,0-.6.06-.94s0-.69,0-1.14c0-.1,0,0,0-1.11,0-.24,0-.56,0-1.18,0-.19,0-.39,0-.61,0-.95-.13-1.37-.17-1.9A8.52,8.52,0,0,1,33,33a5.69,5.69,0,0,1,.08-.7c0-.24.08-.42.11-.58.09-.38.17-.65.2-.76l.08-.24.17-.47.07-.17a.91.91,0,0,1,.08-.17l0-.08a.2.2,0,0,0,0-.08l.07-.11a1,1,0,0,1,.11-.15l.11-.13,0,0,0,0a1.11,1.11,0,0,1,.17-.16l.1-.06,0,0,0,0h0c.05,0,.07,0,.09,0l.06,0,.12,0a2,2,0,0,1,.31-.05A6.75,6.75,0,0,1,36,28.7h.58l.33.05a4.12,4.12,0,0,1,.5.14c.2.08.35.16.48.22a6.12,6.12,0,0,1,.75.44.12.12,0,0,0,.13,0c.09,0,.09-.19.18-.25s.11,0,.33.15.22.12.4.24a2.45,2.45,0,0,1,.26.18L40,30a.26.26,0,0,1,.1.09l.07.09A.7.7,0,0,1,40.26,30.54Z"/><rect class="cls-4" x="5.61" y="7.19" width="68.73" height="92.47" rx="5.26" transform="translate(4.41 -3.03) rotate(4.59)"/><text class="cls-5" transform="matrix(1, 0.08, -0.08, 1, 19.97, 24.14)">A</text><text class="cls-5" transform="matrix(1, 0.08, -0.08, 1, 53.45, 89.02)">A</text><path class="cls-3" d="M56.46,63.29l.73-.48c.42-.29.76-.54.88-.63l.09-.07c-.2.17.09-.06.08-.06l.24-.14a4.85,4.85,0,0,0,.94-.8l.24-.27a8.45,8.45,0,0,0,.57-1,6,6,0,0,0,.38-1,10.81,10.81,0,0,0,.19-1.24c.1-.76.17-1.24.22-1.89v-.08A11.12,11.12,0,0,0,61,54.05c0-.43-.08-1.07-.13-1.86,0,0,0-.18,0-.39l.76-.22h0a15.92,15.92,0,0,1,.24,1.9,32.89,32.89,0,0,1,0,3.43c-.07.73-.17,1.43-.17,1.43-.17,1.21-.25,1.45-.17,1.51s.89-.67,1.21-1.73a8.15,8.15,0,0,0,.23-1.89c0-.18,0-.61,0-1,0-.2,0-.36-.06-.69,0-.11,0-.2,0-.24s0-.24,0-.37c-.06-.55-.46-2.38-.41-2.42a.09.09,0,0,0,0-.05l.75-.25c.06.22.13.33.17.55a21.29,21.29,0,0,1,.33,2.14A18.58,18.58,0,0,1,63.75,57a7,7,0,0,1-.31,2A5.19,5.19,0,0,1,63,60.15a5.34,5.34,0,0,1-.64.86,5.54,5.54,0,0,1-.52.5,28.45,28.45,0,0,1-5.59,4.19c-.54.22-1.43.76-2.19,1.15-1.37.7-2.52,1.23-3.31,1.6l-1.55.68-1.26.52a26.17,26.17,0,0,1-7.31,1.59c-.37,0-.91.08-1.62.11a37.47,37.47,0,0,1-3.8-.12c-3-.2-3.78-.58-4.3-.89-1.72-1-3-2.2-3.18-4.36a.66.66,0,0,0,0-.11c0-.11,0-.2-.09-.65-.08-.61-.07-.62-.1-.86s-.1-.41-.26-1.08-.12-.57-.28-1.23-.15-.58-.25-1-.33-1.47-.49-2.06-1-4.4-1-5.25c0-.37,0-.75,0-1.12a1.12,1.12,0,0,1,.1-.65c.07-.1.13-.1.19-.2a.85.85,0,0,0,.07-.41h0l.41-.12c0,.19,0,.31.05.39s.22,0,.34.17.06.73,0,1.22a8.19,8.19,0,0,0,.1,1.78,20.32,20.32,0,0,0,.38,2.17c.2,1,.21.87.63,2.66.17.75.37,1.49.53,2.24.23,1.07.26,1.33.39,1.36s.5-.91,1.6-3.33c.24-.53.5-1.07.85-1.93.13-.32.31-.75.52-1.34A15.25,15.25,0,0,0,32,54.44,8.15,8.15,0,0,0,32.26,53l0-.32a.79.79,0,0,1,0-.28.54.54,0,0,1,.17-.25l.1-.05.15-.09.51,0c.1.15.27.12.33.31a1.11,1.11,0,0,1,0,.39,1.23,1.23,0,0,1,0,.21c0,.11,0,.21-.06.25a34.3,34.3,0,0,1-1.65,5.12c-.35.81-.62,1.47-.81,1.94s-.46,1.09-.67,1.65-.65,1.49-.67,1.54-.22.55-.27.65l-.17.45A5.06,5.06,0,0,0,29,65.83a5,5,0,0,0,.73,1.47,2.21,2.21,0,0,0,.41.44,9.15,9.15,0,0,0,3.74,1.42,25.61,25.61,0,0,0,3.77.22,33.41,33.41,0,0,0,3.59-.26A36.23,36.23,0,0,0,45,68.4l.6-.16.79-.23.62-.2c.16-.06,1.14-.53,4.51-2h0A30.87,30.87,0,0,0,55,64.14C55.6,63.81,56.09,63.52,56.46,63.29Z"/><path class="cls-3" d="M63.93,47.08a4.3,4.3,0,0,1-.1,1.51,3.39,3.39,0,0,1-.52,1.19c-.19.25-.33.31-.38.55a1.88,1.88,0,0,0,.13.79s0,0,0,0l-.75.25,0-.31c0-.16,0-.54-.17-.6s-.08,0-.29.1-.29.1-.34.14l0,0a.4.4,0,0,0,0,.32,1.66,1.66,0,0,0,.11.38h0l0,.09-.76.22a2.85,2.85,0,0,0-.1-.7c-.16-.28-.41-.2-.73-.38a2.45,2.45,0,0,1-.89-1.29,3.84,3.84,0,0,1-.37-1.61A4.07,4.07,0,0,1,59,46.34a3.4,3.4,0,0,1,1.47-1.81,2,2,0,0,1,1.59-.1,2.38,2.38,0,0,1,1.27.94A3.7,3.7,0,0,1,63.93,47.08ZM60.36,49c1,.66,2.2-.15,2.42-1.61A2.33,2.33,0,0,0,62,45.1c-1-.64-2.19.16-2.41,1.61A2.33,2.33,0,0,0,60.36,49Z"/><path class="cls-3" d="M62.78,47.35c-.22,1.46-1.43,2.27-2.42,1.61a2.33,2.33,0,0,1-.8-2.25C59.78,45.26,61,44.46,62,45.1A2.33,2.33,0,0,1,62.78,47.35Z"/><path class="cls-3" d="M37.15,37.88a6.91,6.91,0,0,1-.38,1.73c-.13.42-.23.68-.7,1.82-.75,1.79-.76,1.79-.86,2.08-.3.87-.49,1.6-.62,2.14-.18.73-.14.7-.41,1.87-.2.86-.44,1.82-.44,1.82-.14.53-.2,1.1-.37,1.61s-.26.82-.13,1l-.51,0c.09-.11.06-.31.05-.46s0-.27.1-.78a16.48,16.48,0,0,1,.5-2.23s.14-.45.66-2.43A31.21,31.21,0,0,1,35,42.85c.36-.94.56-1.42.56-1.42.22-.51.28-.64.41-1s.15-.55.34-1.11.19-.49.27-.8a3.34,3.34,0,0,0,.17-.9,5.09,5.09,0,0,0-.08-.9,5.53,5.53,0,0,0-.12-.66,2.77,2.77,0,0,0-.17-.51A1.77,1.77,0,0,0,36,35.1a3.77,3.77,0,0,0-.53-.45,2,2,0,0,0-.63-.34,2.22,2.22,0,0,0-1.08,0c-.33.06-.24.08-.59.14s-.63.05-.73.25,0,.18,0,.31-.24.18-.56.32-.38.28-.56.28a.61.61,0,0,1-.52-.37,1.15,1.15,0,0,1-.09-.68.94.94,0,0,1,.27-.57c.06,0,.1,0,.27-.07l.44-.07a4.73,4.73,0,0,1,.69-.14c.26,0,.3.11.56.16s.57-.15,1-.21a2.22,2.22,0,0,1,1.37.12,2.77,2.77,0,0,1,1.15,1A4.26,4.26,0,0,1,37,36.24,5.2,5.2,0,0,1,37.15,37.88Z"/><path class="cls-3" d="M31,32.94a1.44,1.44,0,0,1,0,.32,1,1,0,0,1-.31.57.64.64,0,0,1-.52.16L30,34a3.24,3.24,0,0,1-.38-.26l-.19-.12a2,2,0,0,1-.2-.14l-.07-.07,0,0a.11.11,0,0,1,0-.05.34.34,0,0,1,0-.14c0-.13.06-.18.05-.26s0-.11-.21-.21a2.73,2.73,0,0,0-.44-.2h-.05l-.08,0-.14-.06-.11,0-.08,0-.07,0-.07,0a1.65,1.65,0,0,0-.21,0,1.45,1.45,0,0,0-.37,0l-.29,0s-.3,0-.66.1a3.91,3.91,0,0,0-.58.16,1.83,1.83,0,0,0-.5.23,1.64,1.64,0,0,0-.45.78,5.06,5.06,0,0,0-.25,1.14,7.72,7.72,0,0,0-.08,1,6.2,6.2,0,0,0,0,.85c0,.15,0,.3.21,1.13.11.52.08.44.22,1.07,0,0,.06.23.14.63,0,.19,0,.28.06.36s0,.14,0,.23a1.87,1.87,0,0,1,0,.32s0,.15,0,.26,0,.15,0,.24,0,.13,0,.22v0a1.4,1.4,0,0,0,0,.25c.06.38.07.45.16.92,0,.11,0,.24.06.41.1.79,0,.79.14,1.92.12,1.3.2,1.34.24,2.27,0,.59,0,.52,0,1.56,0,.59,0,.92,0,1.57,0,.43,0,.65,0,.73,0,.29-.06.51-.08.67l-.41.12h0a.92.92,0,0,1,0-.15,20.47,20.47,0,0,0,0-2c0-.44,0-.3,0-1,0-.92,0-1.37,0-1.81-.07-.72-.14-.77-.2-1.58,0-.17,0-.29,0-.37,0-.33,0-.6-.06-.94s-.05-.69-.11-1.14c0-.1,0,0-.16-1.09,0-.24-.09-.56-.18-1.17,0-.19-.07-.39-.1-.6-.16-.94-.3-1.35-.4-1.87a8.57,8.57,0,0,1-.19-1.32c0-.34,0-.61,0-.71s0-.43,0-.59c0-.38.09-.66.11-.78s0-.21,0-.25.06-.25.11-.49c0,0,0-.08,0-.17a1.06,1.06,0,0,1,.05-.18l0-.09,0-.08.05-.11a1.31,1.31,0,0,1,.09-.17l.1-.15,0,0,0,0c.09-.14.14-.18.15-.18l.08-.07,0,0,0,0h0l.08-.07.06,0,.11,0a2.08,2.08,0,0,1,.3-.1,7.7,7.7,0,0,1,.82-.18c.31-.05.5-.06.57-.07h.33a2.6,2.6,0,0,1,.51.08c.21.05.38.11.51.15s.49.19.8.34a.12.12,0,0,0,.13,0c.09-.06.07-.21.14-.27s.12,0,.36.11a4.28,4.28,0,0,1,.42.19,1.77,1.77,0,0,1,.28.14l.16.1a.4.4,0,0,1,.12.07.54.54,0,0,0,.07.09A.57.57,0,0,1,31,32.94Z"/><rect class="cls-6" x="0.49" y="9.35" width="68.73" height="92.47" rx="5.26" transform="translate(-0.66 0.42) rotate(-0.68)"/><text class="cls-7" transform="matrix(1, -0.01, 0.01, 1, 12.14, 28.25)">A</text><text class="cls-7" transform="matrix(1, -0.01, 0.01, 1, 51.44, 89.78)">A</text><path class="cls-8" d="M52.89,68.25c.34-.25.58-.45.74-.58.43-.36.77-.67.89-.78l.09-.08c-.19.21.1-.07.09-.07l.24-.18a5.13,5.13,0,0,0,.94-1c.13-.17.21-.29.23-.32a8.53,8.53,0,0,0,.52-1.1A6.56,6.56,0,0,0,57,63c0-.11,0-.17.07-1.36,0-.84.06-1.37.06-2.08V59.5a13.8,13.8,0,0,0-.23-1.71c-.09-.46-.21-1.15-.34-2,0,0,0-.19-.06-.43l.8-.31h0a20.13,20.13,0,0,1,.45,2A35.52,35.52,0,0,1,58,60.81c0,.8,0,1.56,0,1.56-.07,1.34-.13,1.6,0,1.66s.9-.82,1.14-2A8.42,8.42,0,0,0,59.14,60c0-.19,0-.66-.11-1.14,0-.21-.07-.38-.14-.74,0-.12,0-.21,0-.25s-.05-.26-.08-.41c-.13-.59-.74-2.53-.69-2.58a.43.43,0,0,1,0-.05l.78-.34a5.89,5.89,0,0,1,.24.58,23.47,23.47,0,0,1,.57,2.29,19.27,19.27,0,0,1,.51,3.41A8,8,0,0,1,60,63a5.82,5.82,0,0,1-.42,1.24,6,6,0,0,1-.6,1c-.2.26-.39.46-.52.6a31,31,0,0,1-5.64,5.09c-.56.3-1.47,1-2.26,1.47-1.42.9-2.61,1.59-3.43,2.06-.37.21-.92.53-1.61.9l-1.32.7a28.57,28.57,0,0,1-7.76,2.44c-.4.08-1,.19-1.74.29a37.4,37.4,0,0,1-4.13.24c-3.25.08-4.16-.25-4.76-.53-2-.92-3.48-2.08-3.88-4.41l0-.11c0-.12-.05-.22-.16-.7-.15-.65-.14-.66-.2-.92s-.15-.44-.39-1.14-.19-.61-.42-1.32-.23-.6-.38-1.08-.51-1.57-.74-2.19S18.17,61.92,18,61c-.05-.41-.08-.82-.13-1.22a1.23,1.23,0,0,1,0-.72c.07-.11.13-.11.19-.23a.78.78,0,0,0,0-.45h0l.44-.17a.55.55,0,0,0,.09.42c.13.13.25,0,.38.15s.14.78.13,1.32A9.23,9.23,0,0,0,19.49,62a22,22,0,0,0,.63,2.31c.31,1,.32.93.95,2.83.26.79.55,1.57.8,2.37.36,1.14.41,1.42.56,1.44.3,0,.45-1,1.4-3.78.21-.6.43-1.2.73-2.18.11-.35.25-.84.43-1.5a16.27,16.27,0,0,0,.52-2.41,9.44,9.44,0,0,0,.12-1.57V59.2a.66.66,0,0,1,0-.31.47.47,0,0,1,.15-.28s0,0,.11-.07l.15-.11.55-.1c.12.16.3.1.39.31a1.26,1.26,0,0,1,0,.42,1.11,1.11,0,0,1,0,.23c0,.12,0,.24,0,.28a34.28,34.28,0,0,1-1.28,5.71c-.3.92-.52,1.66-.68,2.19s-.39,1.23-.57,1.86-.55,1.68-.56,1.73-.19.62-.23.74-.1.32-.14.49a5.42,5.42,0,0,0-.11,1.47,5.52,5.52,0,0,0,.95,1.53,2.66,2.66,0,0,0,.48.43A10.06,10.06,0,0,0,29,76.89a29.47,29.47,0,0,0,4.11-.15A34.54,34.54,0,0,0,37,76.1a36.72,36.72,0,0,0,4-1.16l.64-.23.82-.33.66-.28c.17-.07,1.19-.69,4.69-2.65h0a34.61,34.61,0,0,0,3.59-2.12C52,68.91,52.51,68.54,52.89,68.25Z"/><path class="cls-8" d="M59.37,49.94a4.5,4.5,0,0,1,0,1.65A3.4,3.4,0,0,1,59,52.92c-.19.29-.33.37-.36.64a1.94,1.94,0,0,0,.22.85s0,0,0,0l-.78.34c-.06-.24-.09-.33-.09-.33,0-.17-.07-.58-.23-.63s-.09,0-.31.14a2.23,2.23,0,0,0-.35.18l0,.05a.51.51,0,0,0,0,.35,1.08,1.08,0,0,0,.16.39v0a.36.36,0,0,1,0,.09l-.8.31a3.28,3.28,0,0,0-.18-.74c-.2-.29-.47-.18-.84-.34A2.65,2.65,0,0,1,54.34,53,4.14,4.14,0,0,1,54,49.62a3.72,3.72,0,0,1,1.41-2.1,2.13,2.13,0,0,1,1.71-.26,2.54,2.54,0,0,1,1.47.89A4,4,0,0,1,59.37,49.94Zm-3.69,2.39c1.14.62,2.37-.38,2.46-2A2.53,2.53,0,0,0,57,48c-1.13-.6-2.35.39-2.45,2A2.53,2.53,0,0,0,55.68,52.33Z"/><path class="cls-8" d="M58.14,50.34c-.09,1.61-1.32,2.61-2.46,2A2.53,2.53,0,0,1,54.59,50c.1-1.6,1.32-2.59,2.45-2A2.53,2.53,0,0,1,58.14,50.34Z"/><path class="cls-8" d="M29.41,42.64a7.5,7.5,0,0,1-.23,1.91c-.11.48-.19.77-.59,2.05-.62,2-.63,2-.72,2.35-.24,1-.36,1.78-.45,2.37-.13.81-.09.78-.27,2.07-.13,1-.29,2-.29,2-.09.59-.1,1.21-.23,1.78s-.21.92,0,1.14l-.55.1a.88.88,0,0,0,0-.51s0-.29,0-.85a18.68,18.68,0,0,1,.31-2.47s.11-.5.48-2.7a34.47,34.47,0,0,1,.68-3.65c.29-1,.46-1.59.46-1.59.18-.58.25-.72.34-1.13s.11-.61.26-1.23.16-.55.22-.9a4,4,0,0,0,.09-1,4.93,4.93,0,0,0-.17-1,4.81,4.81,0,0,0-.21-.71,2.35,2.35,0,0,0-.23-.53,1.8,1.8,0,0,0-.43-.45,4.35,4.35,0,0,0-.61-.44,2.53,2.53,0,0,0-.72-.31,2.44,2.44,0,0,0-1.16.15c-.36.09-.27.1-.63.2s-.69.12-.77.35,0,.19,0,.34-.25.22-.58.41-.38.34-.57.35a.66.66,0,0,1-.61-.35,1.17,1.17,0,0,1-.16-.72,1,1,0,0,1,.23-.65c.06,0,.11,0,.29-.1l.47-.12a5.43,5.43,0,0,1,.73-.22c.28,0,.34.08.63.11s.59-.21,1-.32a2.58,2.58,0,0,1,1.51,0,3,3,0,0,1,1.34,1,4.69,4.69,0,0,1,.83,1.44A5.83,5.83,0,0,1,29.41,42.64Z"/><path class="cls-8" d="M22.23,37.9a1.61,1.61,0,0,1,0,.35,1.12,1.12,0,0,1-.28.65.69.69,0,0,1-.55.23l-.12,0a2.69,2.69,0,0,1-.44-.23l-.21-.11-.24-.14-.08-.07,0,0-.05-.05a.41.41,0,0,1,0-.15c0-.15,0-.21,0-.28s-.05-.12-.25-.21a2.63,2.63,0,0,0-.5-.17h-.05l-.09,0-.16,0-.13,0-.08,0-.08,0-.08,0a1.07,1.07,0,0,0-.24,0,1.31,1.31,0,0,0-.4,0l-.31,0s-.33.07-.71.18a4.77,4.77,0,0,0-.61.24,1.84,1.84,0,0,0-.52.29,1.79,1.79,0,0,0-.41.89,5.4,5.4,0,0,0-.15,1.27,7.59,7.59,0,0,0,0,1.1,7,7,0,0,0,.1.92,9.28,9.28,0,0,0,.34,1.2c.16.55.13.47.35,1.13l.21.68c.05.2.08.3.1.39a2,2,0,0,0,.06.23c.05.21.08.31.08.34s0,.17.06.29,0,.16.07.25,0,.15.05.24v0a2.67,2.67,0,0,0,.07.27c.1.4.13.48.26,1,0,.12.07.26.11.44.19.84.13.85.35,2.07.26,1.39.35,1.42.49,2.43.08.64,0,.56.17,1.69.07.64.13,1,.19,1.7,0,.47.06.7.06.8,0,.31,0,.55,0,.73l-.44.17h0a1.49,1.49,0,0,1,0-.17c0-.79-.12-1.22-.23-2.21-.05-.48,0-.33-.09-1.08-.1-1-.14-1.49-.23-2-.14-.78-.23-.83-.37-1.7q0-.27-.06-.39c-.05-.37-.09-.65-.16-1s-.12-.74-.23-1.22c0-.11,0,0-.28-1.17-.07-.26-.15-.6-.32-1.26-.05-.2-.1-.41-.17-.64-.26-1-.46-1.42-.62-2a11.86,11.86,0,0,1-.34-1.42,7,7,0,0,1-.07-.76c0-.27,0-.47,0-.65,0-.41,0-.72,0-.85s0-.23,0-.27,0-.29.07-.54c0,0,0-.1,0-.2a.69.69,0,0,1,0-.19.81.81,0,0,0,0-.11.29.29,0,0,0,0-.09s0-.08,0-.13l.09-.18a1,1,0,0,1,.09-.17l0,0,0,0a1.19,1.19,0,0,1,.15-.21l.09-.09,0,0,0,0v0l.08-.07.06,0a.35.35,0,0,1,.12-.07l.31-.14a6.2,6.2,0,0,1,.87-.28c.33-.08.53-.12.62-.13a2.69,2.69,0,0,1,.35,0,3,3,0,0,1,.57,0,4.08,4.08,0,0,1,.56.12,8.59,8.59,0,0,1,.9.28.14.14,0,0,0,.14,0c.09-.07.06-.23.13-.31s.12,0,.39.08l.49.16.31.13a1.11,1.11,0,0,0,.19.09.42.42,0,0,1,.13.07l.09.08A.8.8,0,0,1,22.23,37.9Z"/></g></g></svg>