<svg xmlns="http://www.w3.org/2000/svg" viewBox="0 0 23.67 46.39"><defs><style>.cls-1,.cls-9{fill:#fdfdfe;}.cls-1{stroke:#dcdddd;}.cls-1,.cls-8{stroke-miterlimit:10;}.cls-2{fill:#a6b3dc;}.cls-3{fill:#f6bba1;}.cls-4{fill:#f9f8f7;}.cls-5{fill:#2e3d75;}.cls-6{fill:#070808;}.cls-7{fill:#751f2f;}.cls-8{fill:none;stroke:#294f2e;}.cls-10{fill:#502611;}.cls-11{fill:#1c2851;}.cls-12{fill:#9ea1af;}</style></defs><g id="Layer_2" data-name="Layer 2"><g id="Layer_1-2" data-name="Layer 1"><path class="cls-1" d="M20.69,45.84C20.54,39,16.86,34.16,12.3,34.26h0c-4.56.1-8.28,5.28-8.13,12.12"/><polygon class="cls-2" points="14.42 43.05 9.95 42.99 7.64 36.21 16.84 36.01 14.42 43.05"/><ellipse class="cls-3" cx="2.18" cy="22.47" rx="2.18" ry="1.86" transform="translate(-0.49 0.05) rotate(-1.26)"/><ellipse class="cls-3" cx="21.49" cy="22.05" rx="2.18" ry="1.86" transform="translate(-0.48 0.48) rotate(-1.26)"/><ellipse class="cls-4" cx="9.02" cy="21.65" rx="2.59" ry="2.54" transform="translate(-0.47 0.2) rotate(-1.26)"/><ellipse class="cls-4" cx="15.88" cy="21.5" rx="2.59" ry="2.54" transform="translate(-0.47 0.35) rotate(-1.26)"/><ellipse class="cls-5" cx="9.1" cy="21.55" rx="1.55" ry="1.42" transform="translate(-0.47 0.2) rotate(-1.26)"/><ellipse class="cls-5" cx="15.8" cy="21.4" rx="1.55" ry="1.42" transform="translate(-0.47 0.35) rotate(-1.26)"/><circle class="cls-6" cx="9.1" cy="21.62" r="1.24"/><circle class="cls-6" cx="15.81" cy="21.47" r="1.24"/><path class="cls-7" d="M7.41,30.1a5.44,5.44,0,0,0,2.75,2.39,4.63,4.63,0,0,0,4.35-.88,1.27,1.27,0,0,0,.5-.8.89.89,0,0,0-.36-.78,1.86,1.86,0,0,0-2.09.16l-.19.16c-.27.19.28-.15,0,0l-.19.09-.13.06.24-.09s-.23.06-.28.07c-.25.07.39,0,.11,0H12l-.25,0c-.12,0-.28-.13.06,0l-.21-.07s-.31-.17-.13-.05-.08-.06-.11-.08l-.18-.13c-.14-.11-.27-.23-.4-.35L11,30a9.1,9.1,0,0,1-.95-1.2,1.6,1.6,0,0,0-2-.26c-.55.3-1.09.94-.67,1.57Z"/><ellipse class="cls-8" cx="17.04" cy="21.49" rx="3.78" ry="3.74" transform="translate(-0.47 0.38) rotate(-1.26)"/><ellipse class="cls-8" cx="7.92" cy="21.69" rx="3.78" ry="3.74" transform="translate(-0.47 0.18) rotate(-1.26)"/><line class="cls-8" x1="11.7" y1="21.61" x2="13.27" y2="21.57"/><rect class="cls-9" x="3.12" y="36.8" width="3" height="9.34" rx="0.99" transform="translate(19.86 2.62) rotate(27.78)"/><rect class="cls-9" x="18.85" y="36.43" width="3" height="9.41" rx="0.99" transform="translate(57.84 67.59) rotate(151.54)"/><path class="cls-3" d="M19.44,36l-12.51.27c-2.85.09-4.48-1.48-4.53-3.43L2,14.34A3.58,3.58,0,0,1,5.48,10.7L18,10.43a3.56,3.56,0,0,1,3.63,3.47L22,32.36C22.07,34.31,20.5,36,19.44,36Z"/><path class="cls-10" d="M18,8.62c-.82-.38-.5-2-1.62-3.1a7,7,0,0,0-.85-.76,3.17,3.17,0,0,0-1.4-.56,4,4,0,0,0-1.39,0,6.09,6.09,0,0,0-1,.26c-.56.15-1.38.39-2.17.57a16.57,16.57,0,0,1-1.69.29,2.58,2.58,0,0,1-1.33,0,2.87,2.87,0,0,1-.76-.45,4.3,4.3,0,0,1-.81-2.48C5,1.13,5.65.51,5.49.16S3.93.12,3.31,1.45a4.58,4.58,0,0,0-.38,1.67,4,4,0,0,1-.15,1.31c0,.14-.21.61-.38.59C2,5,2,2.46,1.71,2.42S.86,6,.86,6h0a7.4,7.4,0,0,0-.2.93,8.76,8.76,0,0,0-.1,1.28,18.11,18.11,0,0,0,1.55,5.54C2,15,1.94,16.3,1.86,17.63c0,.75-.05,1-.05,1a6,6,0,0,0,.43,2.48c.74-3.91,1.45-5.56,1.53-6.25.11-.93.86.85,2.08,1.44A4.26,4.26,0,0,0,9.58,16c1.19-.5,1.55-1,3.35-2.31s2.52-2.13,3.19-2.06c1.35.15,2.32,2.08,2.85,3.14,1.54,3.09,1.58,5.91,2.24,6s.92-3.28,1.18-5.46a11.3,11.3,0,0,0-.55-5.44c-.29-.76-.47-2.11-1.39-2.33S18.73,9,18,8.62Z"/><rect class="cls-10" x="5.2" y="18" width="5.99" height="1.21" rx="0.54" transform="translate(-6.75 4.82) rotate(-23.54)"/><rect class="cls-10" x="13.76" y="17.82" width="5.99" height="1.21" rx="0.54" transform="translate(25.79 41.63) rotate(-158.97)"/><polygon class="cls-11" points="12.45 44.27 10.43 40.78 12.19 37.48 14.26 40.56 12.45 44.27"/><polygon class="cls-11" points="12.3 39.99 11.21 38.09 10.06 36 12.19 35.76 14.43 35.71 13.36 37.89 12.3 39.99"/><polygon class="cls-12" points="10.99 41.45 8.75 37.91 8.74 37.97 8.64 37.8 7.64 36.21 6.79 37.89 5.89 39.55 7.78 39.44 8.59 39.41 8.46 40.64 8.1 43.31 10.67 44.1 11.82 44.48 12.36 43.56 10.99 41.45"/><polygon class="cls-12" points="18.65 39.27 17.68 37.65 16.76 36.01 15.83 37.65 15.73 37.81 15.72 37.75 13.63 41.4 12.36 43.56 12.94 44.46 14.07 44.02 16.61 43.12 16.13 40.47 15.95 39.25 16.75 39.24 18.65 39.27"/><polygon class="cls-12" points="11.82 44.48 12.38 44.68 12.94 44.46 12.36 43.56 11.82 44.48"/></g></g></svg>