<svg xmlns="http://www.w3.org/2000/svg" viewBox="0 0 204.38 393.02"><defs><style>.cls-1{fill:#020202;}.cls-1,.cls-2,.cls-3,.cls-4{stroke:#020202;stroke-miterlimit:10;stroke-width:5px;}.cls-2{fill:#fcfafb;}.cls-3{fill:none;}.cls-4{fill:#070808;}</style></defs><g id="Layer_2" data-name="Layer 2"><g id="Layer_1-2" data-name="Layer 1"><g id="Layer_2-2" data-name="Layer 2"><g id="Layer_1-2-2" data-name="Layer 1-2"><path class="cls-1" d="M176.77,388.42c-1.6-57.63-32.27-98.4-70.69-97.56h0C67.67,291.7,36.33,335.34,37.59,393"/><polygon class="cls-2" points="123.94 364.91 86.29 364.41 66.83 307.29 144.33 305.6 123.94 364.91"/><ellipse class="cls-2" cx="20.86" cy="191.5" rx="18.37" ry="15.67" transform="translate(-4.21 0.51) rotate(-1.26)"/><ellipse class="cls-2" cx="183.51" cy="188" rx="18.37" ry="15.67" transform="translate(-4.09 4.08) rotate(-1.26)"/><ellipse class="cls-2" cx="78.49" cy="184.59" rx="21.82" ry="21.4" transform="translate(-4.04 1.77) rotate(-1.26)"/><ellipse class="cls-2" cx="136.24" cy="183.32" rx="21.82" ry="21.4" transform="translate(-4 3.04) rotate(-1.26)"/><ellipse class="cls-2" cx="79.15" cy="183.81" rx="13.06" ry="11.96" transform="translate(-4.02 1.78) rotate(-1.26)"/><ellipse class="cls-2" cx="135.55" cy="182.49" rx="13.06" ry="11.96" transform="translate(-3.98 3.02) rotate(-1.26)"/><circle class="cls-2" cx="79.13" cy="184.37" r="10.45"/><circle class="cls-2" cx="135.66" cy="183.11" r="10.45"/><path class="cls-2" d="M76,250.25A41.39,41.39,0,0,0,92.86,266.6a22.8,22.8,0,0,0,23.33-4.05"/><path class="cls-1" d="M64.89,255.81A45.81,45.81,0,0,0,88.06,276a39,39,0,0,0,36.56-7.49,10.73,10.73,0,0,0,4.21-6.74,7.52,7.52,0,0,0-3-6.58,15.68,15.68,0,0,0-17.61,1.35l-1.6,1.35c-2.27,1.6,2.36-1.26,0,0l-1.6.76-1.1.5,2-.75s-1.94.5-2.36.59c-2.11.59,3.28,0,.92,0h-3c-1,0-2.36-1.1.51,0l-1.77-.59s-2.61-1.44-1.1-.43-.67-.5-.92-.67l-1.52-1.09c-1.18-.93-2.28-1.94-3.37-3l1.85,1.77a77.26,77.26,0,0,1-8-10.11,13.47,13.47,0,0,0-16.85-2.19c-4.63,2.52-9.18,7.92-5.64,13.22Z"/><ellipse class="cls-2" cx="146.01" cy="183.27" rx="31.85" ry="31.51" transform="translate(-3.99 3.25) rotate(-1.26)"/><ellipse class="cls-2" cx="69.23" cy="184.96" rx="31.85" ry="31.51" transform="translate(-4.05 1.57) rotate(-1.26)"/><line class="cls-3" x1="101.03" y1="184.29" x2="114.26" y2="183.95"/><rect class="cls-2" x="2.03" y="338.96" width="78.69" height="25.27" rx="8.34" transform="translate(-288.98 224.33) rotate(-62.22)"/><rect class="cls-2" x="161.26" y="309.04" width="25.27" height="79.28" rx="8.34" transform="translate(-145.14 125.01) rotate(-28.46)"/><path class="cls-2" d="M166.24,305.1l-105.4,2.27c-24,.76-37.32-12.46-38.16-28.89L19.31,123A30.16,30.16,0,0,1,48.8,92.38L154.19,90.1a30,30,0,0,1,30.58,29.23l3.46,155.52C188.39,291.28,175.17,305.1,166.24,305.1Z"/><path class="cls-2" d="M153.77,74.85c-6.91-3.2-4.21-16.85-13.65-26.11A58.12,58.12,0,0,0,133,42.33a26.76,26.76,0,0,0-11.79-4.71,33.38,33.38,0,0,0-11.71,0,51.2,51.2,0,0,0-8.43,2.19c-4.71,1.26-11.62,3.28-18.28,4.8A140,140,0,0,1,68.6,47.05a21.76,21.76,0,0,1-11.38-.34,23.78,23.78,0,0,1-6.4-3.79A36.2,36.2,0,0,1,44,22c.25-10.28,6.06-15.59,4.8-18.45S35.57,3.24,30.35,14.87a38.38,38.38,0,0,0-3.2,14.07,33.69,33.69,0,0,1-1.27,11c0,1.18-1.77,5.14-3.2,5-3.2,0-3.37-21.57-5.81-21.91S9.71,53,9.71,53h0A61.83,61.83,0,0,0,8,60.87a74.82,74.82,0,0,0-.84,10.78,152.59,152.59,0,0,0,13.06,46.67c-.76,10.7-1.43,21.66-2.11,32.86v8.42a50.63,50.63,0,0,0,3.62,20.9C28,147.56,34,133.66,34.64,127.84,35.57,120,41.89,135,52.17,140a35.92,35.92,0,0,0,31.42-2.78c10-4.22,13.06-8.43,28.22-19.47S133,99.12,138.27,100c11.37,1.27,19.54,17.53,24,26.46,13,26,13.31,49.79,18.87,50.54s7.75-27.63,9.94-46a95.28,95.28,0,0,0-4.63-45.84c-2.45-6.23-4-17.6-11.29-19.79S160.26,77.89,153.77,74.85Z"/><rect class="cls-4" x="37.84" y="162.33" width="50.46" height="10.19" rx="4.55" transform="translate(-61.62 39.12) rotate(-23.54)"/><rect class="cls-1" x="130.79" y="141.08" width="10.17" height="50.32" rx="4.54" transform="translate(-68.21 232.94) rotate(-68.84)"/><polygon class="cls-2" points="107.35 375.19 90.33 345.79 105.16 317.99 122.6 343.94 107.35 375.19"/><polygon class="cls-1" points="106.08 339.13 96.9 323.13 87.21 305.52 122.6 307.8 115.02 321.44 106.08 339.13"/><polygon class="cls-2" points="95.05 351.44 76.18 321.61 76.09 322.12 75.25 320.69 66.83 307.29 59.66 321.44 52.08 335.43 68 334.5 74.83 334.25 73.73 344.61 70.7 367.1 92.35 373.76 102.04 376.96 106.59 369.21 95.05 351.44"/><polygon class="cls-2" points="159.58 333.07 151.41 319.42 143.66 305.6 135.82 319.42 134.98 320.77 134.9 320.26 117.29 351.01 106.59 369.21 111.48 376.79 121 373.09 142.4 365.5 138.35 343.18 136.84 332.9 143.57 332.82 159.58 333.07"/><polygon class="cls-2" points="102.04 376.96 106.76 378.65 111.48 376.79 106.59 369.21 102.04 376.96"/></g></g></g></g></svg>